<svg width="42" height="40" viewBox="0 0 42 40" fill="none" xmlns="http://www.w3.org/2000/svg">
<path d="M15.75 0.5C7.0515 0.5 2.01148e-06 7.5515 2.01148e-06 16.25C-0.00123125 18.6904 0.564651 21.0977 1.653 23.282L0.078002 29.159C-0.02429 29.5406 -0.0242896 29.9424 0.0780035 30.3241C0.180297 30.7057 0.381275 31.0536 0.660726 31.3329C0.940176 31.6122 1.28824 31.813 1.66992 31.9151C2.0516 32.0172 2.45343 32.017 2.835 31.9145L8.7075 30.341C10.8937 31.4351 13.3053 32.0032 15.75 32C24.45 32 31.5 24.9485 31.5 16.25C31.5 7.5515 24.45 0.5 15.75 0.5ZM18.6825 34.013C17.2909 34.2418 15.8772 34.3062 14.4705 34.205C15.9464 35.8722 17.7599 37.2065 19.7908 38.1193C21.8216 39.0322 24.0234 39.5029 26.25 39.5C28.6947 39.5032 31.1063 38.9351 33.2925 37.841L39.165 39.416C39.5466 39.5183 39.9484 39.5183 40.3301 39.416C40.7117 39.3137 41.0596 39.1127 41.3389 38.8333C41.6182 38.5538 41.819 38.2057 41.9211 37.8241C42.0232 37.4424 42.023 37.0406 41.9205 36.659L40.3455 30.782C41.4375 28.599 42.0041 26.1909 42 23.75C42.0006 20.6429 41.0822 17.6051 39.3604 15.0188C37.6386 12.4324 35.1902 10.4131 32.3235 9.215C32.8665 10.4945 33.2685 11.8505 33.504 13.2635C35.2007 14.4358 36.5873 16.0026 37.5447 17.8292C38.502 19.6559 39.0014 21.6877 39 23.75C39.0033 25.8937 38.4635 28.0033 37.431 29.882C37.2446 30.2208 37.1962 30.6184 37.296 30.992L38.6865 36.182L33.5025 34.7915C33.1289 34.6917 32.7313 34.7401 32.3925 34.9265C30.5113 35.9628 28.3978 36.5047 26.25 36.5015C23.5256 36.5053 20.8723 35.6338 18.6825 34.013ZM14.25 18.5C14.25 16.0175 15.576 14.507 16.65 13.283L16.68 13.25C17.52 12.29 18 11.72 18 11C17.985 10.565 17.73 9.5 15.75 9.5C13.605 9.5 13.5 10.745 13.5 11C13.5 11.825 12.825 12.5 12 12.5C11.175 12.5 10.5 11.825 10.5 11C10.5 9.18499 11.895 6.5 15.75 6.5C19.605 6.5 21 9.18499 21 11C21 12.815 19.905 14.135 18.93 15.245L18.903 15.275C18.015 16.2845 17.25 17.15 17.25 18.5C17.25 19.325 16.575 20 15.75 20C14.925 20 14.25 19.325 14.25 18.5ZM17.625 24.125C17.625 24.6223 17.4274 25.0992 17.0758 25.4508C16.7242 25.8024 16.2473 26 15.75 26C15.2527 26 14.7758 25.8024 14.4242 25.4508C14.0725 25.0992 13.875 24.6223 13.875 24.125C13.875 23.6277 14.0725 23.1508 14.4242 22.7992C14.7758 22.4475 15.2527 22.25 15.75 22.25C16.2473 22.25 16.7242 22.4475 17.0758 22.7992C17.4274 23.1508 17.625 23.6277 17.625 24.125Z" fill="#2A2A2A"/>
</svg>
