<svg width="36" height="46" viewBox="0 0 36 46" fill="none" xmlns="http://www.w3.org/2000/svg">
<path d="M5.0625 0.5C3.71984 0.5 2.43218 1.03337 1.48277 1.98277C0.533369 2.93217 0 4.21984 0 5.5625V40.4375C0 41.7802 0.533369 43.0678 1.48277 44.0172C2.43218 44.9666 3.71984 45.5 5.0625 45.5H30.9375C31.6023 45.5 32.2606 45.3691 32.8748 45.1146C33.489 44.8602 34.0471 44.4873 34.5172 44.0172C34.9873 43.5471 35.3602 42.989 35.6146 42.3748C35.8691 41.7606 36 41.1023 36 40.4375V5.5625C36 4.89768 35.8691 4.23938 35.6146 3.62516C35.3602 3.01095 34.9873 2.45287 34.5172 1.98277C34.0471 1.51268 33.489 1.13977 32.8748 0.88536C32.2606 0.630945 31.6023 0.5 30.9375 0.5H5.0625ZM8.4375 9.5H27.5625C28.0101 9.5 28.4393 9.67779 28.7557 9.99426C29.0722 10.3107 29.25 10.7399 29.25 11.1875C29.25 11.6351 29.0722 12.0643 28.7557 12.3807C28.4393 12.6972 28.0101 12.875 27.5625 12.875H8.4375C7.98995 12.875 7.56072 12.6972 7.24426 12.3807C6.92779 12.0643 6.75 11.6351 6.75 11.1875C6.75 10.7399 6.92779 10.3107 7.24426 9.99426C7.56072 9.67779 7.98995 9.5 8.4375 9.5ZM6.75 33.6875C6.75 33.2399 6.92779 32.8107 7.24426 32.4943C7.56072 32.1778 7.98995 32 8.4375 32H27.5625C28.0101 32 28.4393 32.1778 28.7557 32.4943C29.0722 32.8107 29.25 33.2399 29.25 33.6875C29.25 34.1351 29.0722 34.5643 28.7557 34.8807C28.4393 35.1972 28.0101 35.375 27.5625 35.375H8.4375C7.98995 35.375 7.56072 35.1972 7.24426 34.8807C6.92779 34.5643 6.75 34.1351 6.75 33.6875ZM8.4375 20.75H27.5625C28.0101 20.75 28.4393 20.9278 28.7557 21.2443C29.0722 21.5607 29.25 21.9899 29.25 22.4375C29.25 22.8851 29.0722 23.3143 28.7557 23.6307C28.4393 23.9472 28.0101 24.125 27.5625 24.125H8.4375C7.98995 24.125 7.56072 23.9472 7.24426 23.6307C6.92779 23.3143 6.75 22.8851 6.75 22.4375C6.75 21.9899 6.92779 21.5607 7.24426 21.2443C7.56072 20.9278 7.98995 20.75 8.4375 20.75Z" fill="#2A2A2A"/>
</svg>
