<svg width="42" height="42" viewBox="0 0 42 42" fill="none" xmlns="http://www.w3.org/2000/svg">
<path fill-rule="evenodd" clip-rule="evenodd" d="M21 42C23.7578 42 26.4885 41.4568 29.0364 40.4015C31.5842 39.3461 33.8992 37.7993 35.8492 35.8492C37.7993 33.8992 39.3461 31.5842 40.4015 29.0364C41.4568 26.4885 42 23.7578 42 21C42 18.2422 41.4568 15.5115 40.4015 12.9636C39.3461 10.4158 37.7993 8.10079 35.8492 6.15076C33.8992 4.20073 31.5842 2.65388 29.0364 1.59853C26.4885 0.543181 23.7578 -4.10938e-08 21 0C15.4305 8.29927e-08 10.089 2.21249 6.15076 6.15076C2.21249 10.089 0 15.4305 0 21C0 26.5695 2.21249 31.911 6.15076 35.8492C10.089 39.7875 15.4305 42 21 42ZM18.1603 11.6433L31.3297 18.9607C31.6932 19.1628 31.9962 19.4585 32.2071 19.817C32.418 20.1756 32.5292 20.584 32.5292 21C32.5292 21.416 32.418 21.8244 32.2071 22.183C31.9962 22.5415 31.6932 22.8372 31.3297 23.0393L18.1603 30.3567C17.7339 30.5937 17.253 30.7152 16.7651 30.7091C16.2773 30.703 15.7995 30.5696 15.3792 30.322C14.9588 30.0745 14.6104 29.7214 14.3685 29.2977C14.1266 28.874 13.9995 28.3945 14 27.9067V14.0933C13.9995 13.6055 14.1266 13.126 14.3685 12.7023C14.6104 12.2786 14.9588 11.9255 15.3792 11.678C15.7995 11.4304 16.2773 11.297 16.7651 11.2909C17.253 11.2848 17.7339 11.4063 18.1603 11.6433Z" fill="#2A2A2A"/>
</svg>
